<?xml version="1.0" encoding="UTF-8" standalone="no"?>
<!-- Created with Inkscape (http://www.inkscape.org/) -->

<svg
   xmlns:dc="http://purl.org/dc/elements/1.1/"
   xmlns:cc="http://creativecommons.org/ns#"
   xmlns:rdf="http://www.w3.org/1999/02/22-rdf-syntax-ns#"
   xmlns:svg="http://www.w3.org/2000/svg"
   xmlns="http://www.w3.org/2000/svg"
   xmlns:sodipodi="http://sodipodi.sourceforge.net/DTD/sodipodi-0.dtd"
   xmlns:inkscape="http://www.inkscape.org/namespaces/inkscape"
   width="196"
   height="196"
   viewBox="0 0 51.858332 51.858332"
   version="1.1"
   id="svg8"
   inkscape:version="0.92.3 (2405546, 2018-03-11)"
   sodipodi:docname="favicon.svg"
   inkscape:export-filename="/home/mia/Documents/Code/TEJO/centra-reto/files/web/static/images/favicon.png"
   inkscape:export-xdpi="96"
   inkscape:export-ydpi="96">
  <defs
     id="defs2">
    <style
       id="style46"
       type="text/css"><![CDATA[
    .fil0 {fill:white}
    .fil1 {fill:#009846;fill-rule:nonzero}
   ]]></style>
    <style
       id="style46-3"
       type="text/css">
   <![CDATA[
    .fil0 {fill:white}
    .fil1 {fill:#009846;fill-rule:nonzero}
   ]]>
  </style>
  </defs>
  <sodipodi:namedview
     id="base"
     pagecolor="#ffffff"
     bordercolor="#666666"
     borderopacity="1.0"
     inkscape:pageopacity="0.0"
     inkscape:pageshadow="2"
     inkscape:zoom="2.8"
     inkscape:cx="89.518207"
     inkscape:cy="81.786319"
     inkscape:document-units="px"
     inkscape:current-layer="g938"
     showgrid="false"
     units="px"
     inkscape:window-width="1920"
     inkscape:window-height="1016"
     inkscape:window-x="1920"
     inkscape:window-y="376"
     inkscape:window-maximized="1" />
  <metadata
     id="metadata5">
    <rdf:RDF>
      <cc:Work
         rdf:about="">
        <dc:format>image/svg+xml</dc:format>
        <dc:type
           rdf:resource="http://purl.org/dc/dcmitype/StillImage" />
        <dc:title />
      </cc:Work>
    </rdf:RDF>
  </metadata>
  <g
     inkscape:groupmode="layer"
     id="layer2"
     inkscape:label="TEJO">
    <g
       style="clip-rule:evenodd;fill-rule:evenodd;image-rendering:optimizeQuality;shape-rendering:geometricPrecision;text-rendering:geometricPrecision"
       id="g915"
       transform="matrix(0.0079999,0,0,0.0079999,23.033588,2.1392756)">
      <g
         transform="translate(-2324.4395,604.86017)"
         id="Warstwa_x0020_1">
        <metadata
           id="CorelCorpID_0Corel-Layer" />
        <g
           id="_2307182666128">
          <path
             style="fill:#ffffff"
             inkscape:connector-curvature="0"
             id="path51"
             d="m 3539,2299 -750,28 c 9,-1 12,-4 11,-14 0,-96 0,-192 0,-287 0,-13 2,-18 16,-18 33,1 66,3 98,-2 26,-3 51,-10 70,-30 20,-22 24,-50 24,-79 0,-394 0,-788 0,-1182 0,-14 3,-17 17,-17 123,0 247,0 370,0 13,0 17,3 17,17 -1,411 0,822 -1,1233 0,54 -6,108 -20,160 -24,91 -75,158 -163,194 -6,3 -13,3 -18,9 60,-2 119,-5 178,-7 50,-2 100,-4 151,-5 z m -786,30 -173,6 c 58,-2 115,-4 173,-6 z M 2142,1186 c -78,0 -156,-1 -233,0 -14,0 -15,-4 -13,-15 16,-74 46,-140 107,-187 111,-85 299,-68 369,110 10,25 15,51 18,77 2,11 -1,15 -13,15 -79,-1 -157,0 -235,0 z m 2383,131 c -1,73 -13,148 -49,217 -77,148 -252,141 -333,74 -45,-39 -72,-89 -87,-145 -30,-115 -28,-228 14,-340 23,-62 61,-112 125,-137 94,-36 224,-19 287,118 31,66 42,137 43,213 z m -2180,94 c 144,0 288,0 432,1 15,0 18,-5 18,-18 3,-116 -10,-230 -51,-340 -59,-155 -159,-273 -314,-338 -142,-61 -291,-71 -440,-35 -225,56 -383,191 -463,410 -47,127 -48,259 -19,390 49,218 178,366 390,440 109,38 222,46 336,38 100,-8 196,-32 285,-80 126,-69 210,-172 251,-310 3,-12 2,-15 -12,-15 -116,0 -233,0 -349,0 -10,0 -15,3 -19,12 -19,39 -49,68 -86,89 -62,34 -128,40 -196,29 -71,-12 -128,-47 -167,-108 -29,-45 -41,-96 -47,-149 -1,-13 2,-16 15,-16 145,0 290,0 436,0 z M 4280,662 c -47,0 -92,4 -138,13 -173,34 -312,122 -406,273 -104,164 -126,343 -83,530 41,182 144,320 309,408 143,77 297,93 455,63 210,-41 363,-158 452,-354 61,-134 73,-275 46,-419 C 4889,1037 4825,918 4719,823 4594,711 4445,663 4280,662 Z M 718,1280 c 1,81 -2,183 1,284 2,52 7,104 19,155 22,87 70,153 157,185 63,24 129,30 196,33 88,4 175,-5 263,-10 14,-1 16,-5 16,-18 0,-87 0,-173 0,-260 0,-22 0,-21 -22,-20 -42,3 -84,8 -127,3 -65,-7 -100,-44 -100,-110 0,-183 0,-366 0,-550 0,-11 3,-14 14,-13 73,0 145,0 218,0 13,0 17,-2 17,-16 -1,-77 0,-153 0,-230 0,-12 -2,-15 -14,-15 -73,0 -145,0 -217,1 -14,0 -18,-3 -18,-18 0,-113 0,-227 0,-340 0,-12 -3,-15 -14,-15 -125,1 -249,1 -373,0 -13,0 -17,3 -17,16 1,114 1,227 1,341 0,12 -2,16 -15,16 -59,-1 -117,-1 -175,-1 -11,0 -14,3 -13,13 0,78 0,157 0,235 -1,10 2,13 13,13 58,0 116,0 173,0 13,-1 17,2 17,16 -1,95 0,190 0,305 z M 3209,546 c 63,0 125,-1 187,0 13,0 16,-4 16,-16 -1,-93 -1,-186 0,-279 0,-11 -2,-15 -14,-15 -126,1 -251,1 -377,0 -11,0 -13,4 -13,14 0,94 0,188 0,282 0,11 3,14 14,14 62,-1 125,0 187,0 z"
             class="fil0" />
          <path
             style="fill:#009846;fill-rule:nonzero"
             inkscape:connector-curvature="0"
             id="path53"
             d="m 3210,2311 c 5,-6 12,-6 18,-9 88,-36 139,-103 163,-194 14,-52 20,-106 20,-160 1,-411 0,-822 1,-1233 0,-14 -4,-17 -17,-17 -123,0 -247,0 -370,0 -14,0 -17,3 -17,17 0,394 0,788 0,1182 0,29 -4,57 -24,79 -19,20 -44,27 -70,30 -32,5 -65,3 -98,2 -14,0 -16,5 -16,18 0,95 0,191 0,287 1,11 -2,14 -14,14 -119,5 -237,10 -356,14 -67,3 -134,5 -202,8 -130,4 -261,9 -391,14 -101,4 -203,8 -304,12 -131,5 -261,10 -392,15 -101,4 -202,8 -304,12 -107,4 -214,10 -321,12 -100,1 -206,-51 -225,-187 C 274,2104 256,1981 239,1858 221,1729 203,1600 184,1471 164,1328 143,1186 123,1043 102,893 81,742 59,591 40,456 20,321 2,186 -5,131 4,79 46,38 73,11 108,0 145,0 c 63,-1 127,5 190,8 119,5 238,11 357,16 126,6 251,12 377,18 104,5 209,10 314,15 104,5 209,10 314,15 126,6 252,12 378,18 125,6 251,12 376,18 126,5 251,11 377,17 105,5 209,10 314,15 105,5 210,10 314,15 126,6 251,12 377,18 126,6 252,12 378,18 125,6 251,12 376,18 105,5 210,9 315,14 97,5 194,8 292,15 67,5 125,30 159,92 23,41 22,86 17,131 -8,75 -15,151 -23,227 -8,85 -17,170 -25,255 -8,75 -15,149 -22,223 -8,76 -15,151 -23,226 -7,75 -14,149 -22,223 -8,87 -17,173 -25,259 -6,53 -11,106 -16,159 -10,88 -67,200 -207,208 -76,4 -152,6 -228,9 -131,5 -261,10 -392,15 -101,4 -202,8 -304,12 -139,6 -279,12 -419,17 -92,4 -184,7 -276,10 -59,2 -118,5 -178,7 z M 2142,1186 c -78,0 -156,-1 -233,0 -14,0 -15,-4 -13,-15 16,-74 46,-140 107,-187 111,-85 299,-68 369,110 10,25 15,51 18,77 2,11 -1,15 -13,15 -79,-1 -157,0 -235,0 z m 2383,131 c -1,73 -13,148 -49,217 -77,148 -252,141 -333,74 -45,-39 -72,-89 -87,-145 -30,-115 -28,-228 14,-340 23,-62 61,-112 125,-137 94,-36 224,-19 287,118 31,66 42,137 43,213 z m -2180,94 c 144,0 288,0 432,1 15,0 18,-5 18,-18 3,-116 -10,-230 -51,-340 -59,-155 -159,-273 -314,-338 -142,-61 -291,-71 -440,-35 -225,56 -383,191 -463,410 -47,127 -48,259 -19,390 49,218 178,366 390,440 109,38 222,46 336,38 100,-8 196,-32 285,-80 126,-69 210,-172 251,-310 3,-12 2,-15 -12,-15 -116,0 -233,0 -349,0 -10,0 -15,3 -19,12 -19,39 -49,68 -86,89 -62,34 -128,40 -196,29 -71,-12 -128,-47 -167,-108 -29,-45 -41,-96 -47,-149 -1,-13 2,-16 15,-16 145,0 290,0 436,0 z M 4280,662 c -47,0 -92,4 -138,13 -173,34 -312,122 -406,273 -104,164 -126,343 -83,530 41,182 144,320 309,408 143,77 297,93 455,63 210,-41 363,-158 452,-354 61,-134 73,-275 46,-419 C 4889,1037 4825,918 4719,823 4594,711 4445,663 4280,662 Z M 718,1280 c 1,81 -2,183 1,284 2,52 7,104 19,155 22,87 70,153 157,185 63,24 129,30 196,33 88,4 175,-5 263,-10 14,-1 16,-5 16,-18 0,-87 0,-173 0,-260 0,-22 0,-21 -22,-20 -42,3 -84,8 -127,3 -65,-7 -100,-44 -100,-110 0,-183 0,-366 0,-550 0,-11 3,-14 14,-13 73,0 145,0 218,0 13,0 17,-2 17,-16 -1,-77 0,-153 0,-230 0,-12 -2,-15 -14,-15 -73,0 -145,0 -217,1 -14,0 -18,-3 -18,-18 0,-113 0,-227 0,-340 0,-12 -3,-15 -14,-15 -125,1 -249,1 -373,0 -13,0 -17,3 -17,16 1,114 1,227 1,341 0,12 -2,16 -15,16 -59,-1 -117,-1 -175,-1 -11,0 -14,3 -13,13 0,78 0,157 0,235 -1,10 2,13 13,13 58,0 116,0 173,0 13,-1 17,2 17,16 -1,95 0,190 0,305 z M 3209,546 c 63,0 125,-1 187,0 13,0 16,-4 16,-16 -1,-93 -1,-186 0,-279 0,-11 -2,-15 -14,-15 -126,1 -251,1 -377,0 -11,0 -13,4 -13,14 0,94 0,188 0,282 0,11 3,14 14,14 62,-1 125,0 187,0 z"
             class="fil1" />
        </g>
      </g>
      <text
         id="text14"
         y="1348.4242"
         x="6072.3389"
         style="font-style:normal;font-variant:normal;font-weight:normal;font-stretch:normal;font-size:1058.3470459px;line-height:1.25;font-family:Roboto;-inkscape-font-specification:Roboto;letter-spacing:0px;word-spacing:0px;fill:#000000;fill-opacity:1;stroke:none;stroke-width:26.45867729"
         xml:space="preserve"><tspan
           style="font-style:normal;font-variant:normal;font-weight:normal;font-stretch:normal;font-family:Roboto;-inkscape-font-specification:Roboto;stroke-width:26.45867729"
           y="2274.4778"
           x="6072.3389"
           id="tspan12"
           sodipodi:role="line" /></text>
    </g>
  </g>
  <g
     inkscape:groupmode="layer"
     id="layer4"
     inkscape:label="CR"
     style="display:inline">
    <g
       transform="matrix(0.00999987,0,0,0.00999987,-17.881031,29.992672)"
       id="text18"
       style="font-style:normal;font-weight:normal;font-size:1058.3470459px;line-height:1.25;font-family:sans-serif;letter-spacing:0px;word-spacing:0px;clip-rule:evenodd;fill:#f18c07;fill-opacity:1;fill-rule:evenodd;stroke:none;stroke-width:26.45867729;image-rendering:optimizeQuality;shape-rendering:geometricPrecision;text-rendering:geometricPrecision"
       aria-label="centra reto">
      <g
         style="clip-rule:evenodd;fill-rule:evenodd;image-rendering:optimizeQuality;shape-rendering:geometricPrecision;text-rendering:geometricPrecision"
         id="g938"
         transform="translate(-1365.5198,-1515.4542)">
        <text
           id="text14-6"
           y="1348.4242"
           x="6072.3389"
           style="font-style:normal;font-variant:normal;font-weight:normal;font-stretch:normal;font-size:1058.3470459px;line-height:1.25;font-family:Roboto;-inkscape-font-specification:Roboto;letter-spacing:0px;word-spacing:0px;fill:#000000;fill-opacity:1;stroke:none;stroke-width:26.45867729"
           xml:space="preserve"><tspan
             style="font-style:normal;font-variant:normal;font-weight:normal;font-stretch:normal;font-family:Roboto;-inkscape-font-specification:Roboto;stroke-width:26.45867729"
             y="2274.4778"
             x="6072.3389"
             id="tspan12-2"
             sodipodi:role="line" /></text>
        <text
           id="text18-9"
           y="3240.9475"
           x="4240.6396"
           style="font-style:normal;font-weight:normal;font-size:1058.3470459px;line-height:1.25;font-family:sans-serif;letter-spacing:0px;word-spacing:0px;fill:#f18c07;fill-opacity:1;stroke:none;stroke-width:26.45867729"
           xml:space="preserve"><tspan
             id="tspan20"
             style="font-style:normal;font-variant:normal;font-weight:bold;font-stretch:normal;font-size:2293.08520508px;font-family:Roboto;-inkscape-font-specification:'Roboto Bold';fill:#f18c07;fill-opacity:1;stroke-width:26.45867729"
             y="3240.9475"
             x="4240.6396"
             sodipodi:role="line">CR</tspan></text>
      </g>
    </g>
  </g>
</svg>
