<?xml version="1.0" encoding="UTF-8"?>
<!DOCTYPE svg PUBLIC "-//W3C//DTD SVG 1.1//EN" "http://www.w3.org/Graphics/SVG/1.1/DTD/svg11.dtd">
<!-- Creator: CorelDRAW X7 -->
<svg xmlns="http://www.w3.org/2000/svg" xml:space="preserve" width="53.7293mm" height="24.1401mm" version="1.1" style="shape-rendering:geometricPrecision; text-rendering:geometricPrecision; image-rendering:optimizeQuality; fill-rule:evenodd; clip-rule:evenodd"
viewBox="0 0 5373 2414"
 xmlns:xlink="http://www.w3.org/1999/xlink">
 <defs>
  <style type="text/css">
   <![CDATA[
    .fil0 {fill:white}
    .fil1 {fill:#009846;fill-rule:nonzero}
   ]]>
  </style>
 </defs>
 <g id="Warstwa_x0020_1">
  <metadata id="CorelCorpID_0Corel-Layer"/>
  <g id="_2307182666128">
   <path class="fil0" d="M3539 2299l-750 28c9,-1 12,-4 11,-14 0,-96 0,-192 0,-287 0,-13 2,-18 16,-18 33,1 66,3 98,-2 26,-3 51,-10 70,-30 20,-22 24,-50 24,-79 0,-394 0,-788 0,-1182 0,-14 3,-17 17,-17 123,0 247,0 370,0 13,0 17,3 17,17 -1,411 0,822 -1,1233 0,54 -6,108 -20,160 -24,91 -75,158 -163,194 -6,3 -13,3 -18,9 60,-2 119,-5 178,-7 50,-2 100,-4 151,-5zm-786 30l-173 6c58,-2 115,-4 173,-6zm-611 -1143c-78,0 -156,-1 -233,0 -14,0 -15,-4 -13,-15 16,-74 46,-140 107,-187 111,-85 299,-68 369,110 10,25 15,51 18,77 2,11 -1,15 -13,15 -79,-1 -157,0 -235,0zm2383 131c-1,73 -13,148 -49,217 -77,148 -252,141 -333,74 -45,-39 -72,-89 -87,-145 -30,-115 -28,-228 14,-340 23,-62 61,-112 125,-137 94,-36 224,-19 287,118 31,66 42,137 43,213zm-2180 94c144,0 288,0 432,1 15,0 18,-5 18,-18 3,-116 -10,-230 -51,-340 -59,-155 -159,-273 -314,-338 -142,-61 -291,-71 -440,-35 -225,56 -383,191 -463,410 -47,127 -48,259 -19,390 49,218 178,366 390,440 109,38 222,46 336,38 100,-8 196,-32 285,-80 126,-69 210,-172 251,-310 3,-12 2,-15 -12,-15 -116,0 -233,0 -349,0 -10,0 -15,3 -19,12 -19,39 -49,68 -86,89 -62,34 -128,40 -196,29 -71,-12 -128,-47 -167,-108 -29,-45 -41,-96 -47,-149 -1,-13 2,-16 15,-16 145,0 290,0 436,0zm1935 -749c-47,0 -92,4 -138,13 -173,34 -312,122 -406,273 -104,164 -126,343 -83,530 41,182 144,320 309,408 143,77 297,93 455,63 210,-41 363,-158 452,-354 61,-134 73,-275 46,-419 -26,-139 -90,-258 -196,-353 -125,-112 -274,-160 -439,-161zm-3562 618c1,81 -2,183 1,284 2,52 7,104 19,155 22,87 70,153 157,185 63,24 129,30 196,33 88,4 175,-5 263,-10 14,-1 16,-5 16,-18 0,-87 0,-173 0,-260 0,-22 0,-21 -22,-20 -42,3 -84,8 -127,3 -65,-7 -100,-44 -100,-110 0,-183 0,-366 0,-550 0,-11 3,-14 14,-13 73,0 145,0 218,0 13,0 17,-2 17,-16 -1,-77 0,-153 0,-230 0,-12 -2,-15 -14,-15 -73,0 -145,0 -217,1 -14,0 -18,-3 -18,-18 0,-113 0,-227 0,-340 0,-12 -3,-15 -14,-15 -125,1 -249,1 -373,0 -13,0 -17,3 -17,16 1,114 1,227 1,341 0,12 -2,16 -15,16 -59,-1 -117,-1 -175,-1 -11,0 -14,3 -13,13 0,78 0,157 0,235 -1,10 2,13 13,13 58,0 116,0 173,0 13,-1 17,2 17,16 -1,95 0,190 0,305zm2491 -734c63,0 125,-1 187,0 13,0 16,-4 16,-16 -1,-93 -1,-186 0,-279 0,-11 -2,-15 -14,-15 -126,1 -251,1 -377,0 -11,0 -13,4 -13,14 0,94 0,188 0,282 0,11 3,14 14,14 62,-1 125,0 187,0z"/>
   <path class="fil1" d="M3210 2311c5,-6 12,-6 18,-9 88,-36 139,-103 163,-194 14,-52 20,-106 20,-160 1,-411 0,-822 1,-1233 0,-14 -4,-17 -17,-17 -123,0 -247,0 -370,0 -14,0 -17,3 -17,17 0,394 0,788 0,1182 0,29 -4,57 -24,79 -19,20 -44,27 -70,30 -32,5 -65,3 -98,2 -14,0 -16,5 -16,18 0,95 0,191 0,287 1,11 -2,14 -14,14 -119,5 -237,10 -356,14 -67,3 -134,5 -202,8 -130,4 -261,9 -391,14 -101,4 -203,8 -304,12 -131,5 -261,10 -392,15 -101,4 -202,8 -304,12 -107,4 -214,10 -321,12 -100,1 -206,-51 -225,-187 -17,-123 -35,-246 -52,-369 -18,-129 -36,-258 -55,-387 -20,-143 -41,-285 -61,-428 -21,-150 -42,-301 -64,-452 -19,-135 -39,-270 -57,-405 -7,-55 2,-107 44,-148 27,-27 62,-38 99,-38 63,-1 127,5 190,8 119,5 238,11 357,16 126,6 251,12 377,18 104,5 209,10 314,15 104,5 209,10 314,15 126,6 252,12 378,18 125,6 251,12 376,18 126,5 251,11 377,17 105,5 209,10 314,15 105,5 210,10 314,15 126,6 251,12 377,18 126,6 252,12 378,18 125,6 251,12 376,18 105,5 210,9 315,14 97,5 194,8 292,15 67,5 125,30 159,92 23,41 22,86 17,131 -8,75 -15,151 -23,227 -8,85 -17,170 -25,255 -8,75 -15,149 -22,223 -8,76 -15,151 -23,226 -7,75 -14,149 -22,223 -8,87 -17,173 -25,259 -6,53 -11,106 -16,159 -10,88 -67,200 -207,208 -76,4 -152,6 -228,9 -131,5 -261,10 -392,15 -101,4 -202,8 -304,12 -139,6 -279,12 -419,17 -92,4 -184,7 -276,10 -59,2 -118,5 -178,7zm-1068 -1125c-78,0 -156,-1 -233,0 -14,0 -15,-4 -13,-15 16,-74 46,-140 107,-187 111,-85 299,-68 369,110 10,25 15,51 18,77 2,11 -1,15 -13,15 -79,-1 -157,0 -235,0zm2383 131c-1,73 -13,148 -49,217 -77,148 -252,141 -333,74 -45,-39 -72,-89 -87,-145 -30,-115 -28,-228 14,-340 23,-62 61,-112 125,-137 94,-36 224,-19 287,118 31,66 42,137 43,213zm-2180 94c144,0 288,0 432,1 15,0 18,-5 18,-18 3,-116 -10,-230 -51,-340 -59,-155 -159,-273 -314,-338 -142,-61 -291,-71 -440,-35 -225,56 -383,191 -463,410 -47,127 -48,259 -19,390 49,218 178,366 390,440 109,38 222,46 336,38 100,-8 196,-32 285,-80 126,-69 210,-172 251,-310 3,-12 2,-15 -12,-15 -116,0 -233,0 -349,0 -10,0 -15,3 -19,12 -19,39 -49,68 -86,89 -62,34 -128,40 -196,29 -71,-12 -128,-47 -167,-108 -29,-45 -41,-96 -47,-149 -1,-13 2,-16 15,-16 145,0 290,0 436,0zm1935 -749c-47,0 -92,4 -138,13 -173,34 -312,122 -406,273 -104,164 -126,343 -83,530 41,182 144,320 309,408 143,77 297,93 455,63 210,-41 363,-158 452,-354 61,-134 73,-275 46,-419 -26,-139 -90,-258 -196,-353 -125,-112 -274,-160 -439,-161zm-3562 618c1,81 -2,183 1,284 2,52 7,104 19,155 22,87 70,153 157,185 63,24 129,30 196,33 88,4 175,-5 263,-10 14,-1 16,-5 16,-18 0,-87 0,-173 0,-260 0,-22 0,-21 -22,-20 -42,3 -84,8 -127,3 -65,-7 -100,-44 -100,-110 0,-183 0,-366 0,-550 0,-11 3,-14 14,-13 73,0 145,0 218,0 13,0 17,-2 17,-16 -1,-77 0,-153 0,-230 0,-12 -2,-15 -14,-15 -73,0 -145,0 -217,1 -14,0 -18,-3 -18,-18 0,-113 0,-227 0,-340 0,-12 -3,-15 -14,-15 -125,1 -249,1 -373,0 -13,0 -17,3 -17,16 1,114 1,227 1,341 0,12 -2,16 -15,16 -59,-1 -117,-1 -175,-1 -11,0 -14,3 -13,13 0,78 0,157 0,235 -1,10 2,13 13,13 58,0 116,0 173,0 13,-1 17,2 17,16 -1,95 0,190 0,305zm2491 -734c63,0 125,-1 187,0 13,0 16,-4 16,-16 -1,-93 -1,-186 0,-279 0,-11 -2,-15 -14,-15 -126,1 -251,1 -377,0 -11,0 -13,4 -13,14 0,94 0,188 0,282 0,11 3,14 14,14 62,-1 125,0 187,0z"/>
  </g>
 </g>
</svg>
